<svg xmlns="http://www.w3.org/2000/svg" fill="none" viewBox="0 0 24 24" id="Task--Streamline-Outlined-Material" height="24" width="24"><desc>Task Streamline Icon: https://streamlinehq.com</desc><path fill="#000000" d="M10.85 17.625 16.575 11.9l-0.975 -0.975 -4.75 4.75 -2.575 -2.575 -0.975 0.975 3.55 3.55ZM5.5 22c-0.4 0 -0.75 -0.15 -1.05 -0.45 -0.3 -0.3 -0.45 -0.65 -0.45 -1.05V3.5c0 -0.4 0.15 -0.75 0.45 -1.05 0.3 -0.3 0.65 -0.45 1.05 -0.45h9.025L20 7.475V20.5c0 0.4 -0.15 0.75 -0.45 1.05 -0.3 0.3 -0.65 0.45 -1.05 0.45H5.5Zm8.275 -13.85V3.5H5.5v17h13V8.15h-4.725Z" stroke-width="0.5"></path></svg>